<svg xmlns="http://www.w3.org/2000/svg" xmlns:xlink="http://www.w3.org/1999/xlink" width="400" zoomAndPan="magnify" viewBox="0 0 300 74.999997" height="100" preserveAspectRatio="xMidYMid meet" version="1.0"><defs><g/><clipPath id="753a391e30"><path d="M 60 14 L 63.769531 14 L 63.769531 18 L 60 18 Z M 60 14 " clip-rule="nonzero"/></clipPath><clipPath id="8660069554"><path d="M 38 44 L 61 44 L 61 74.71875 L 38 74.71875 Z M 38 44 " clip-rule="nonzero"/></clipPath><clipPath id="f13c89842a"><path d="M 229.953125 31 L 250.628906 31 L 250.628906 56.488281 L 229.953125 56.488281 Z M 229.953125 31 " clip-rule="nonzero"/></clipPath></defs><path fill="#ccfbf1" d="M 20.234375 5.441406 C 19.730469 5.945312 19.285156 6.488281 18.890625 7.050781 C 19.339844 5.671875 20.113281 4.375 21.207031 3.28125 C 24.941406 -0.453125 30.992188 -0.453125 34.722656 3.28125 L 35.542969 4.097656 C 30.878906 0.828125 24.402344 1.273438 20.234375 5.441406 Z M 43.496094 21.183594 L 48.859375 15.820312 L 35.828125 2.785156 C 31.488281 -1.554688 24.449219 -1.554688 20.113281 2.785156 C 15.773438 7.125 15.773438 14.160156 20.113281 18.5 L 33.144531 31.535156 L 38.433594 26.242188 L 33.074219 20.878906 L 38.132812 15.820312 L 43.496094 21.183594 " fill-opacity="1" fill-rule="nonzero"/><path fill="#ccfbf1" d="M 55.296875 23.988281 L 51.984375 23.988281 L 51.984375 20.675781 L 49.394531 20.675781 L 49.394531 23.988281 L 46.078125 23.988281 L 46.078125 26.578125 L 49.394531 26.578125 L 49.394531 29.894531 L 51.984375 29.894531 L 51.984375 26.578125 L 55.296875 26.578125 L 55.296875 23.988281 " fill-opacity="1" fill-rule="nonzero"/><path fill="#ccfbf1" d="M 61.042969 20.394531 L 59.316406 20.394531 L 59.316406 18.667969 L 57.964844 18.667969 L 57.964844 20.394531 L 56.238281 20.394531 L 56.238281 21.746094 L 57.964844 21.746094 L 57.964844 23.472656 L 59.316406 23.472656 L 59.316406 21.746094 L 61.042969 21.746094 L 61.042969 20.394531 " fill-opacity="1" fill-rule="nonzero"/><g clip-path="url(#753a391e30)"><path fill="#ccfbf1" d="M 63.722656 15.699219 L 62.539062 15.699219 L 62.539062 14.515625 L 61.613281 14.515625 L 61.613281 15.699219 L 60.433594 15.699219 L 60.433594 16.625 L 61.613281 16.625 L 61.613281 17.808594 L 62.539062 17.808594 L 62.539062 16.625 L 63.722656 16.625 L 63.722656 15.699219 " fill-opacity="1" fill-rule="nonzero"/></g><path fill="#ccfbf1" d="M 55.773438 15.730469 L 54.671875 15.730469 L 54.671875 14.628906 L 53.808594 14.628906 L 53.808594 15.730469 L 52.707031 15.730469 L 52.707031 16.59375 L 53.808594 16.59375 L 53.808594 17.695312 L 54.671875 17.695312 L 54.671875 16.59375 L 55.773438 16.59375 L 55.773438 15.730469 " fill-opacity="1" fill-rule="nonzero"/><path fill="#ccfbf1" d="M 59.753906 26.617188 L 58.652344 26.617188 L 58.652344 25.515625 L 57.789062 25.515625 L 57.789062 26.617188 L 56.683594 26.617188 L 56.683594 27.480469 L 57.789062 27.480469 L 57.789062 28.585938 L 58.652344 28.585938 L 58.652344 27.480469 L 59.753906 27.480469 L 59.753906 26.617188 " fill-opacity="1" fill-rule="nonzero"/><g clip-path="url(#8660069554)"><path fill="#f08619" d="M 59.527344 64.136719 C 59.527344 69.5 55.179688 73.84375 49.816406 73.84375 C 48.242188 73.84375 46.757812 73.46875 45.441406 72.804688 C 46.132812 72.925781 46.84375 72.992188 47.566406 72.992188 C 53.554688 72.992188 58.523438 68.660156 59.527344 62.960938 Z M 53.019531 44.976562 L 53.019531 52.683594 L 45.75 52.683594 L 45.75 44.976562 L 38.097656 44.976562 L 38.097656 63.699219 C 38.097656 69.933594 43.152344 74.988281 49.382812 74.988281 C 55.617188 74.988281 60.671875 69.933594 60.671875 63.699219 L 60.671875 44.976562 L 53.019531 44.976562 " fill-opacity="1" fill-rule="nonzero"/></g><g fill="#ffffff" fill-opacity="1"><g transform="translate(48.945916, 44.624995)"><g><path d="M 22.359375 -0.234375 L 22.734375 -0.234375 L 22.734375 0 L 15.65625 0 L 15.65625 -0.21875 L 16 -0.21875 C 16.269531 -0.226562 16.5 -0.332031 16.6875 -0.53125 C 16.875 -0.738281 16.953125 -0.972656 16.921875 -1.234375 L 16 -9.796875 L 11.5625 -2.15625 C 10.976562 -1.175781 10.679688 -0.300781 10.671875 0.46875 L 10.4375 0.46875 L 4.375 -9.734375 L 3.453125 -1.234375 C 3.421875 -0.972656 3.5 -0.738281 3.6875 -0.53125 C 3.875 -0.320312 4.101562 -0.21875 4.375 -0.21875 L 4.71875 -0.21875 L 4.71875 0 L -0.21875 0 L -0.21875 -0.234375 L 0.171875 -0.234375 C 0.609375 -0.234375 0.988281 -0.363281 1.3125 -0.625 C 1.632812 -0.894531 1.828125 -1.257812 1.890625 -1.71875 L 3.84375 -16.859375 L 4.0625 -16.859375 L 11.375 -4.8125 L 18.421875 -16.859375 L 18.625 -16.859375 L 20.640625 -1.71875 C 20.710938 -1.257812 20.910156 -0.894531 21.234375 -0.625 C 21.554688 -0.363281 21.929688 -0.234375 22.359375 -0.234375 Z M 22.359375 -0.234375 "/></g></g></g><g fill="#ffffff" fill-opacity="1"><g transform="translate(73.727981, 44.624995)"><g><path d="M 1.296875 -0.234375 C 1.703125 -0.234375 2.050781 -0.378906 2.34375 -0.671875 C 2.632812 -0.960938 2.789062 -1.3125 2.8125 -1.71875 L 2.8125 -14.875 C 2.78125 -15.28125 2.660156 -15.578125 2.453125 -15.765625 C 2.078125 -16.117188 1.691406 -16.296875 1.296875 -16.296875 L 0.984375 -16.296875 L 0.984375 -16.53125 L 10.03125 -16.53125 C 10.800781 -16.53125 11.4375 -16.585938 11.9375 -16.703125 C 12.445312 -16.816406 12.753906 -16.898438 12.859375 -16.953125 L 12.859375 -12.8125 L 12.625 -12.84375 L 12.625 -13.109375 C 12.625 -14.078125 12.265625 -14.769531 11.546875 -15.1875 C 11.203125 -15.382812 10.789062 -15.492188 10.3125 -15.515625 L 6.34375 -15.515625 L 6.34375 -8.640625 L 9.46875 -8.640625 C 10.050781 -8.660156 10.53125 -8.863281 10.90625 -9.25 C 11.28125 -9.632812 11.46875 -10.109375 11.46875 -10.671875 L 11.46875 -10.890625 L 11.703125 -10.890625 L 11.703125 -5.4375 L 11.46875 -5.4375 L 11.46875 -5.625 C 11.46875 -6.207031 11.28125 -6.6875 10.90625 -7.0625 C 10.539062 -7.4375 10.078125 -7.632812 9.515625 -7.65625 L 6.34375 -7.65625 L 6.34375 -1.015625 L 9.4375 -1.015625 C 10.59375 -1.015625 11.554688 -1.34375 12.328125 -2 C 13.109375 -2.664062 13.691406 -3.601562 14.078125 -4.8125 L 14.3125 -4.8125 L 13.21875 0 L 0.984375 0 L 0.984375 -0.234375 Z M 1.296875 -0.234375 "/></g></g></g><g fill="#ffffff" fill-opacity="1"><g transform="translate(90.91031, 44.624995)"><g><path d="M 9.5625 -16.53125 C 12.34375 -16.53125 14.546875 -15.789062 16.171875 -14.3125 C 17.796875 -12.832031 18.609375 -10.816406 18.609375 -8.265625 C 18.609375 -5.710938 17.796875 -3.695312 16.171875 -2.21875 C 14.546875 -0.738281 12.34375 0 9.5625 0 L 0.984375 0 L 0.984375 -0.234375 L 1.296875 -0.234375 C 1.703125 -0.234375 2.050781 -0.378906 2.34375 -0.671875 C 2.632812 -0.960938 2.789062 -1.3125 2.8125 -1.71875 L 2.8125 -14.9375 C 2.8125 -15.320312 2.65625 -15.644531 2.34375 -15.90625 C 2.039062 -16.164062 1.691406 -16.296875 1.296875 -16.296875 L 0.984375 -16.296875 L 0.984375 -16.53125 Z M 9.25 -1.015625 C 10.382812 -1.015625 11.363281 -1.304688 12.1875 -1.890625 C 13.019531 -2.472656 13.65625 -3.3125 14.09375 -4.40625 C 14.53125 -5.5 14.75 -6.691406 14.75 -7.984375 C 14.75 -9.273438 14.617188 -10.367188 14.359375 -11.265625 C 14.109375 -12.171875 13.742188 -12.941406 13.265625 -13.578125 C 12.296875 -14.878906 10.957031 -15.53125 9.25 -15.53125 L 6.34375 -15.53125 L 6.34375 -1.015625 Z M 9.25 -1.015625 "/></g></g></g><g fill="#ffffff" fill-opacity="1"><g transform="translate(112.742168, 44.624995)"><g><path d="M 22.359375 -0.234375 L 22.734375 -0.234375 L 22.734375 0 L 15.65625 0 L 15.65625 -0.21875 L 16 -0.21875 C 16.269531 -0.226562 16.5 -0.332031 16.6875 -0.53125 C 16.875 -0.738281 16.953125 -0.972656 16.921875 -1.234375 L 16 -9.796875 L 11.5625 -2.15625 C 10.976562 -1.175781 10.679688 -0.300781 10.671875 0.46875 L 10.4375 0.46875 L 4.375 -9.734375 L 3.453125 -1.234375 C 3.421875 -0.972656 3.5 -0.738281 3.6875 -0.53125 C 3.875 -0.320312 4.101562 -0.21875 4.375 -0.21875 L 4.71875 -0.21875 L 4.71875 0 L -0.21875 0 L -0.21875 -0.234375 L 0.171875 -0.234375 C 0.609375 -0.234375 0.988281 -0.363281 1.3125 -0.625 C 1.632812 -0.894531 1.828125 -1.257812 1.890625 -1.71875 L 3.84375 -16.859375 L 4.0625 -16.859375 L 11.375 -4.8125 L 18.421875 -16.859375 L 18.625 -16.859375 L 20.640625 -1.71875 C 20.710938 -1.257812 20.910156 -0.894531 21.234375 -0.625 C 21.554688 -0.363281 21.929688 -0.234375 22.359375 -0.234375 Z M 22.359375 -0.234375 "/></g></g></g><g fill="#ffffff" fill-opacity="1"><g transform="translate(137.524232, 44.624995)"><g><path d="M 1.296875 -0.234375 C 1.703125 -0.234375 2.050781 -0.378906 2.34375 -0.671875 C 2.632812 -0.960938 2.789062 -1.3125 2.8125 -1.71875 L 2.8125 -14.828125 C 2.789062 -15.234375 2.632812 -15.578125 2.34375 -15.859375 C 2.050781 -16.148438 1.703125 -16.296875 1.296875 -16.296875 L 0.984375 -16.296875 L 0.984375 -16.53125 L 8.171875 -16.53125 L 8.140625 -16.296875 L 7.859375 -16.296875 C 7.453125 -16.296875 7.097656 -16.148438 6.796875 -15.859375 C 6.492188 -15.578125 6.34375 -15.234375 6.34375 -14.828125 L 6.34375 -1.71875 C 6.34375 -1.3125 6.492188 -0.960938 6.796875 -0.671875 C 7.097656 -0.378906 7.453125 -0.234375 7.859375 -0.234375 L 8.140625 -0.234375 L 8.171875 0 L 0.984375 0 L 0.984375 -0.234375 Z M 1.296875 -0.234375 "/></g></g></g><g fill="#ffffff" fill-opacity="1"><g transform="translate(148.924161, 44.624995)"><g><path d="M 19.28125 -16.296875 C 18.738281 -16.296875 18.320312 -16.054688 18.03125 -15.578125 C 17.90625 -15.378906 17.835938 -15.144531 17.828125 -14.875 L 17.828125 -2.6875 C 17.828125 -1.632812 17.894531 -0.75 18.03125 -0.03125 L 18.109375 0.328125 L 17.890625 0.328125 L 5.96875 -11.03125 L 5.96875 -1.65625 C 5.96875 -1.257812 6.109375 -0.921875 6.390625 -0.640625 C 6.679688 -0.367188 7.019531 -0.234375 7.40625 -0.234375 L 7.859375 -0.234375 L 7.859375 0 L 0.703125 0 L 0.703125 -0.234375 L 1.140625 -0.234375 C 1.546875 -0.234375 1.890625 -0.367188 2.171875 -0.640625 C 2.453125 -0.921875 2.59375 -1.265625 2.59375 -1.671875 L 2.59375 -13.921875 C 2.59375 -14.960938 2.523438 -15.832031 2.390625 -16.53125 L 2.34375 -16.875 L 2.546875 -16.875 L 14.46875 -5.53125 L 14.46875 -14.84375 C 14.457031 -15.257812 14.304688 -15.601562 14.015625 -15.875 C 13.734375 -16.15625 13.398438 -16.296875 13.015625 -16.296875 L 12.578125 -16.296875 L 12.578125 -16.53125 L 19.734375 -16.53125 L 19.734375 -16.296875 Z M 19.28125 -16.296875 "/></g></g></g><g fill="#ffffff" fill-opacity="1"><g transform="translate(171.629271, 44.624995)"><g><path d="M 9.5625 -16.53125 C 12.34375 -16.53125 14.546875 -15.789062 16.171875 -14.3125 C 17.796875 -12.832031 18.609375 -10.816406 18.609375 -8.265625 C 18.609375 -5.710938 17.796875 -3.695312 16.171875 -2.21875 C 14.546875 -0.738281 12.34375 0 9.5625 0 L 0.984375 0 L 0.984375 -0.234375 L 1.296875 -0.234375 C 1.703125 -0.234375 2.050781 -0.378906 2.34375 -0.671875 C 2.632812 -0.960938 2.789062 -1.3125 2.8125 -1.71875 L 2.8125 -14.9375 C 2.8125 -15.320312 2.65625 -15.644531 2.34375 -15.90625 C 2.039062 -16.164062 1.691406 -16.296875 1.296875 -16.296875 L 0.984375 -16.296875 L 0.984375 -16.53125 Z M 9.25 -1.015625 C 10.382812 -1.015625 11.363281 -1.304688 12.1875 -1.890625 C 13.019531 -2.472656 13.65625 -3.3125 14.09375 -4.40625 C 14.53125 -5.5 14.75 -6.691406 14.75 -7.984375 C 14.75 -9.273438 14.617188 -10.367188 14.359375 -11.265625 C 14.109375 -12.171875 13.742188 -12.941406 13.265625 -13.578125 C 12.296875 -14.878906 10.957031 -15.53125 9.25 -15.53125 L 6.34375 -15.53125 L 6.34375 -1.015625 Z M 9.25 -1.015625 "/></g></g></g><g fill="#ffffff" fill-opacity="1"><g transform="translate(193.461129, 44.624995)"><g><path d="M 1.296875 -0.234375 C 1.703125 -0.234375 2.050781 -0.378906 2.34375 -0.671875 C 2.632812 -0.960938 2.789062 -1.3125 2.8125 -1.71875 L 2.8125 -14.875 C 2.78125 -15.28125 2.660156 -15.578125 2.453125 -15.765625 C 2.078125 -16.117188 1.691406 -16.296875 1.296875 -16.296875 L 0.984375 -16.296875 L 0.984375 -16.53125 L 10.03125 -16.53125 C 10.800781 -16.53125 11.4375 -16.585938 11.9375 -16.703125 C 12.445312 -16.816406 12.753906 -16.898438 12.859375 -16.953125 L 12.859375 -12.8125 L 12.625 -12.84375 L 12.625 -13.109375 C 12.625 -14.078125 12.265625 -14.769531 11.546875 -15.1875 C 11.203125 -15.382812 10.789062 -15.492188 10.3125 -15.515625 L 6.34375 -15.515625 L 6.34375 -8.640625 L 9.46875 -8.640625 C 10.050781 -8.660156 10.53125 -8.863281 10.90625 -9.25 C 11.28125 -9.632812 11.46875 -10.109375 11.46875 -10.671875 L 11.46875 -10.890625 L 11.703125 -10.890625 L 11.703125 -5.4375 L 11.46875 -5.4375 L 11.46875 -5.625 C 11.46875 -6.207031 11.28125 -6.6875 10.90625 -7.0625 C 10.539062 -7.4375 10.078125 -7.632812 9.515625 -7.65625 L 6.34375 -7.65625 L 6.34375 -1.015625 L 9.4375 -1.015625 C 10.59375 -1.015625 11.554688 -1.34375 12.328125 -2 C 13.109375 -2.664062 13.691406 -3.601562 14.078125 -4.8125 L 14.3125 -4.8125 L 13.21875 0 L 0.984375 0 L 0.984375 -0.234375 Z M 1.296875 -0.234375 "/></g></g></g><g fill="#ffffff" fill-opacity="1"><g transform="translate(210.643458, 44.624995)"><g><path d="M 7.5 -15.484375 L 6.5 -15.484375 C 6.46875 -15.484375 6.441406 -15.484375 6.421875 -15.484375 L 6.421875 -1.71875 C 6.441406 -1.3125 6.59375 -0.960938 6.875 -0.671875 C 7.164062 -0.378906 7.519531 -0.234375 7.9375 -0.234375 L 8.234375 -0.234375 L 8.234375 0 L 1.0625 0 L 1.0625 -0.234375 L 1.375 -0.234375 C 1.9375 -0.234375 2.367188 -0.476562 2.671875 -0.96875 C 2.796875 -1.1875 2.863281 -1.429688 2.875 -1.703125 L 2.875 -14.796875 C 2.863281 -15.210938 2.710938 -15.566406 2.421875 -15.859375 C 2.128906 -16.148438 1.78125 -16.296875 1.375 -16.296875 L 1.0625 -16.296875 L 1.0625 -16.53125 L 9.15625 -16.53125 C 10.6875 -16.53125 11.976562 -16.195312 13.03125 -15.53125 C 13.5625 -15.207031 13.984375 -14.75 14.296875 -14.15625 C 14.617188 -13.5625 14.78125 -12.785156 14.78125 -11.828125 C 14.78125 -10.878906 14.445312 -9.960938 13.78125 -9.078125 C 13.125 -8.203125 12.164062 -7.703125 10.90625 -7.578125 C 11.820312 -7.273438 12.625 -6.582031 13.3125 -5.5 C 15.007812 -2.78125 16.269531 -1.160156 17.09375 -0.640625 C 17.5 -0.390625 18.007812 -0.253906 18.625 -0.234375 L 18.625 0 L 16.3125 0 C 14.945312 0 13.8125 -0.179688 12.90625 -0.546875 C 12 -0.910156 11.285156 -1.546875 10.765625 -2.453125 C 10.460938 -2.972656 9.8125 -4.320312 8.8125 -6.5 C 8.363281 -7.457031 7.828125 -7.984375 7.203125 -8.078125 L 7.203125 -8.3125 L 7.9375 -8.3125 C 8.644531 -8.3125 9.269531 -8.519531 9.8125 -8.9375 C 10.351562 -9.363281 10.71875 -10.0625 10.90625 -11.03125 C 10.96875 -11.351562 11 -11.613281 11 -11.8125 C 11 -13.09375 10.738281 -14.019531 10.21875 -14.59375 C 9.695312 -15.175781 9.03125 -15.472656 8.21875 -15.484375 C 8.0625 -15.484375 7.820312 -15.484375 7.5 -15.484375 Z M 7.5 -15.484375 "/></g></g></g><g clip-path="url(#f13c89842a)"><path fill="#ccfbf1" d="M 250.792969 44.585938 L 250.792969 46.160156 C 250.792969 46.746094 250.316406 47.222656 249.730469 47.222656 L 243.101562 47.226562 C 242.519531 47.226562 242.039062 47.703125 242.039062 48.289062 L 242.042969 55.191406 C 242.042969 55.777344 241.566406 56.25 240.980469 56.25 L 239.40625 56.25 C 238.824219 56.25 237.867188 56.253906 237.285156 56.253906 L 235.710938 56.253906 C 235.128906 56.253906 234.648438 55.777344 234.648438 55.191406 L 234.644531 48.289062 C 234.644531 47.703125 234.171875 47.226562 233.585938 47.226562 L 229.578125 47.230469 L 229.578125 46.554688 L 231.503906 46.554688 L 231.503906 44.902344 L 230.3125 44.902344 L 230.3125 42.976562 L 232.238281 42.976562 L 232.238281 41.191406 L 231 41.191406 L 231 39.832031 L 233.585938 39.832031 C 234.167969 39.832031 234.644531 39.355469 234.644531 38.773438 L 234.644531 32.140625 C 234.644531 31.554688 235.117188 31.082031 235.703125 31.082031 L 237.277344 31.082031 C 237.863281 31.082031 238.816406 31.082031 239.402344 31.078125 L 240.976562 31.078125 C 241.558594 31.078125 242.039062 31.554688 242.039062 32.140625 L 242.039062 38.769531 C 242.039062 39.351562 242.515625 39.832031 243.097656 39.832031 L 249.730469 39.828125 C 250.316406 39.828125 250.792969 40.304688 250.792969 40.890625 L 250.792969 42.464844 C 250.792969 43.046875 250.792969 44.003906 250.792969 44.585938 Z M 250.792969 44.585938 " fill-opacity="1" fill-rule="nonzero"/></g></svg>